<?xml version="1.0" encoding="UTF-8" standalone="no"?>
<!-- Created with Inkscape (http://www.inkscape.org/) -->

<svg
   xmlns:dc="http://purl.org/dc/elements/1.1/"
   xmlns:cc="http://creativecommons.org/ns#"
   xmlns:rdf="http://www.w3.org/1999/02/22-rdf-syntax-ns#"
   xmlns:svg="http://www.w3.org/2000/svg"
   xmlns="http://www.w3.org/2000/svg"
   xmlns:sodipodi="http://sodipodi.sourceforge.net/DTD/sodipodi-0.dtd"
   xmlns:inkscape="http://www.inkscape.org/namespaces/inkscape"
   version="1.0"
   width="274.67001"
   height="274.67001"
   id="svg2"
   inkscape:version="0.48.3.1 r9886"
   sodipodi:docname="w.svg">
  <metadata
     id="metadata16">
    <rdf:RDF>
      <cc:Work
         rdf:about="">
        <dc:format>image/svg+xml</dc:format>
        <dc:type
           rdf:resource="http://purl.org/dc/dcmitype/StillImage" />
      </cc:Work>
    </rdf:RDF>
  </metadata>
  <sodipodi:namedview
     pagecolor="#ffffff"
     bordercolor="#666666"
     borderopacity="1"
     objecttolerance="10"
     gridtolerance="10"
     guidetolerance="10"
     inkscape:pageopacity="0"
     inkscape:pageshadow="2"
     inkscape:window-width="1183"
     inkscape:window-height="653"
     id="namedview14"
     showgrid="false"
     width="274.67px"
     inkscape:zoom="1.2014243"
     inkscape:cx="137.33699"
     inkscape:cy="86.019638"
     inkscape:window-x="0"
     inkscape:window-y="0"
     inkscape:window-maximized="0"
     inkscape:current-layer="svg2" />
  <defs
     id="defs4" />
  <g
     transform="translate(17.625,-231.22456)"
     style="display:inline"
     id="layer1">
    <g
       id="g3462">
      <path
         d="m 152.4375,284.75 c -10.52824,0.0212 -21.51601,2.43629 -32,7.375 l -0.0313,-0.0313 -1.46875,0.78125 c -1.15891,0.57583 -2.32446,1.17343 -3.46875,1.8125 -0.32041,0.17894 -0.64962,0.34733 -0.96875,0.53125 l -129.625,68.15625 0,39.5 43.4375,46.1875 78.8125,-43.71875 27,28.625 c 0.19671,0.21096 0.3937,0.41763 0.59375,0.625 l 0.59375,0.625 0.0313,-0.0313 c 19.20582,19.24291 52.98651,22.4435 81.625,5.9375 33.23848,-19.15724 47.01299,-57.62691 30.75,-85.84375 -2.29655,-3.98459 -5.08665,-7.51967 -8.25,-10.65625 L 239.5,344.59375 193.40625,299.9375 C 182.84207,289.97606 168.15049,284.71834 152.4375,284.75 z"
         style="fill:#c8c8c8;fill-opacity:1;stroke:#000000;stroke-width:5;stroke-linecap:round;stroke-linejoin:round;stroke-miterlimit:4;stroke-opacity:1;stroke-dasharray:none;stroke-dashoffset:0;display:inline"
         id="path3415"
         inkscape:connector-curvature="0" />
      <path
         d="M 223.12407,88.193494 A 69.5,59 0 1 1 155.4979,120.34348"
         transform="matrix(0.8663977,-0.4993547,0.4993547,0.8663977,-74.34663,371.24918)"
         style="fill:#646464;fill-opacity:1;stroke:#000000;stroke-width:5;stroke-linecap:round;stroke-linejoin:round;stroke-miterlimit:4;stroke-opacity:1;stroke-dasharray:none;stroke-dashoffset:0"
         id="path3407"
         inkscape:connector-curvature="0" />
      <path
         d="M 28.2947,409.97902 -15.11605,363.36176"
         style="fill:none;stroke:#000000;stroke-width:5;stroke-linecap:round;stroke-linejoin:round;stroke-miterlimit:4;stroke-opacity:1;stroke-dasharray:none;stroke-dashoffset:0"
         id="path3409"
         inkscape:connector-curvature="0" />
      <path
         d="m 164.99685,335.21932 -136.70215,74.7597 0.01299,39.07138 94.18144,-53.20205"
         style="fill:#646464;fill-opacity:1;stroke:#000000;stroke-width:5;stroke-linecap:round;stroke-linejoin:round;stroke-miterlimit:4;stroke-opacity:1;stroke-dasharray:none;stroke-dashoffset:0"
         id="path3411"
         inkscape:connector-curvature="0" />
      <path
         d="m 154.23602,327.1555 c 0,0 -16.04138,8.43391 -16.04138,8.43391 l -27.25374,-28.20291 16.04138,-8.43391 c 0,0 27.25374,28.20291 27.25374,28.20291 z"
         style="fill:#323232;fill-opacity:1;stroke:#000000;stroke-width:5;stroke-linecap:round;stroke-linejoin:round;stroke-miterlimit:4;stroke-opacity:1;stroke-dasharray:none;stroke-dashoffset:0"
         id="path3413"
         inkscape:connector-curvature="0" />
      <path
         d="M -14.981433,402.68435 9.1671088,389.67639"
         style="fill:#000000;fill-opacity:1;fill-rule:nonzero;stroke:#000000;stroke-width:5;stroke-linecap:round;stroke-linejoin:round;stroke-miterlimit:4;stroke-opacity:1;stroke-dasharray:none;stroke-dashoffset:0"
         id="path3417"
         inkscape:connector-curvature="0" />
      <path
         d="m -13.35086,366.75893 39.872941,42.92705 0,35.99006 -39.872941,-42.53624 0,-36.38087 z"
         style="fill:#000000;fill-opacity:0.69019608;stroke:#000000;stroke-width:5;stroke-linecap:round;stroke-linejoin:miter;stroke-miterlimit:4;stroke-opacity:1;stroke-dasharray:none;stroke-dashoffset:0"
         id="path3419"
         inkscape:connector-curvature="0" />
      <path
         d="m 120.5,397.9375 -13.375,7.40625 27,28.625 c -2.59,-2.77713 -4.89047,-5.86098 -6.84375,-9.25 -4.77727,-8.28873 -6.92015,-17.47507 -6.78125,-26.78125 z"
         style="fill:#000000;fill-opacity:0.69019608;stroke:none"
         id="path3442"
         inkscape:connector-curvature="0" />
    </g>
  </g>
</svg>
